<mxfile host="app.diagrams.net" modified="2021-09-04T09:30:11.362Z" agent="5.0 (Windows NT 10.0; Win64; x64) AppleWebKit/537.36 (KHTML, like Gecko) Chrome/90.0.4430.93 Safari/537.36" etag="S5Fv4mheWEerVL2Qf61U" version="15.0.6" type="github">
  <diagram id="BamuSz4PVHbhIfCLuy0U" name="Page-1">
    <mxGraphModel dx="1328" dy="746" grid="1" gridSize="10" guides="1" tooltips="1" connect="1" arrows="1" fold="1" page="1" pageScale="1" pageWidth="827" pageHeight="1169" math="0" shadow="0">
      <root>
        <mxCell id="0" />
        <mxCell id="1" parent="0" />
        <mxCell id="tYjXk9eKjlTHRl9EI4Dv-1" value="&lt;font style=&quot;font-size: 24px&quot; face=&quot;Tahoma&quot;&gt;Tech Merger&lt;/font&gt;" style="rounded=1;whiteSpace=wrap;html=1;fillColor=none;strokeColor=none;fontFamily=Georgia;fontStyle=1;textOpacity=80;fontColor=#333333;" parent="1" vertex="1">
          <mxGeometry x="290" y="190" width="290" height="90" as="geometry" />
        </mxCell>
      </root>
    </mxGraphModel>
  </diagram>
</mxfile>
